<svg xmlns="http://www.w3.org/2000/svg" width="524" height="412" fill="none"><g clip-path="url(#a)"><path fill="#3F3D56" d="M137.437 185.942c-1.148 0-2.089.94-2.089 2.086v16.705c0 1.147.941 2.087 2.089 2.087 1.148 0 2.09-.94 2.09-2.087v-16.705c0-1.146-.942-2.086-2.09-2.086Z"/><path fill="#fff" d="M375.335 0H187.203c-21.33 0-38.63 17.278-38.63 38.5802V370.599c0 21.303 17.3 38.581 38.63 38.581h188.132c21.33 0 38.63-17.278 38.63-38.581V38.5802C413.965 17.278 396.665 0 375.335 0Z"/><path fill="#3F3D56" d="M375.335 412H187.203c-21.801 0-39.548-17.714-39.548-39.497V40.4949c0-21.7723 17.736-39.497433 39.548-39.497433h188.132c21.801 0 39.549 17.713633 39.549 39.497433V372.514c0 21.772-17.737 39.497-39.549 39.497V412ZM187.203 2.83189c-20.79 0-37.712 16.89961-37.712 37.66301V372.514c0 20.763 16.922 37.663 37.712 37.663h188.132c20.791 0 37.712-16.9 37.712-37.663V40.4949c0-20.7634-16.921-37.66301-37.712-37.66301H187.203Z"/><path fill="#E6E6E6" d="M388.962 80.8981h-75.618c-3.203 0-5.821-2.6026-5.821-5.8129 0-3.2102 2.606-5.8128 5.821-5.8128h75.618c3.203 0 5.82 2.6026 5.82 5.8128 0 3.2103-2.606 5.8129-5.82 5.8129Z"/><path fill="#0036D0" d="M318.016 126.587H244.51c-1.848 0-3.363-1.502-3.363-3.36 0-1.857 1.504-3.359 3.363-3.359h73.506c1.848 0 3.364 1.502 3.364 3.359 0 1.858-1.504 3.36-3.364 3.36Z"/><path fill="#E6E6E6" d="M214.215 14.3888h-42.143c-.108 0-.195.0872-.195.1949v5.0561c0 .1076.087.1949.195.1949h42.143c.108 0 .195-.0873.195-.1949v-5.0561c0-.1077-.087-.1949-.195-.1949ZM355.475 19.8347c2.409 0 4.363-1.9506 4.363-4.3568 0-2.4061-1.954-4.3567-4.363-4.3567-2.409 0-4.362 1.9506-4.362 4.3567 0 2.4062 1.953 4.3568 4.362 4.3568ZM367.472 19.8347c2.409 0 4.362-1.9506 4.362-4.3568 0-2.4061-1.953-4.3567-4.362-4.3567-2.41 0-4.363 1.9506-4.363 4.3567 0 2.4062 1.953 4.3568 4.363 4.3568ZM379.468 19.8347c2.409 0 4.362-1.9506 4.362-4.3568 0-2.4061-1.953-4.3567-4.362-4.3567s-4.362 1.9506-4.362 4.3567c0 2.4062 1.953 4.3568 4.362 4.3568Z"/><path fill="#3F3D56" d="M186.743 144.553c0 .607.483 1.089 1.091 1.089h186.87c.608 0 1.09-.482 1.09-1.089 0-.608-.482-1.09-1.09-1.09h-186.87c-.608 0-1.091.482-1.091 1.09ZM334.949 298.312c0 .607.482 1.089 1.091 1.089h186.869c.609 0 1.091-.482 1.091-1.089 0-.608-.482-1.09-1.091-1.09H336.04c-.609 0-1.091.482-1.091 1.09Z"/><path fill="#0036D0" d="M356.784 230.002H244.637c-1.849 0-3.364-1.502-3.364-3.359s1.504-3.359 3.364-3.359h112.147c1.848 0 3.363 1.502 3.363 3.359s-1.504 3.359-3.363 3.359ZM210.622 234.451c4.546 0 8.231-3.681 8.231-8.221s-3.685-8.22-8.231-8.22c-4.546 0-8.231 3.68-8.231 8.22 0 4.54 3.685 8.221 8.231 8.221Z"/><path fill="#3F3D56" d="M209.703 239.931v-1.823c6.808 0 12.353-5.538 12.353-12.336 0-6.799-5.545-12.337-12.353-12.337v-1.823c7.818 0 14.178 6.352 14.178 14.16 0 7.807-6.36 14.159-14.178 14.159Z"/><path fill="#FFB6B6" d="M111.653 193.073c3.364-3.417 7.841-4.448 10.022-2.316 2.182 2.133 1.217 6.627-2.146 10.044-1.32 1.387-2.962 2.43-4.764 3.049l-14.408 14.286-6.5662-6.902 14.9012-13.346c.585-1.823 1.607-3.474 2.973-4.815h-.012Z"/><path fill="#E6E6E6" d="m65.5617 181.275 15.1075 33.479L104.8 201.706l8.633 4.575s-19.7226 32.928-33.2344 29.179c-13.5004-3.749-37.4819-37.744-33.1654-48.234 4.3164-10.491 18.517-5.962 18.517-5.962l.0115.011Z"/><path fill="#3F3D56" d="M0 410.876c0 .425.332917.757.757673.757H466.646c.425 0 .758-.332.758-.757 0-.424-.333-.756-.758-.756H.757673c-.424756 0-.757673.332-.757673.756Z"/><path fill="#241EC3" d="M139.469 247.211c22.895 0 41.454-18.145 41.454-40.529 0-22.384-18.559-40.529-41.454-40.529-22.894 0-41.4536 18.145-41.4536 40.529 0 22.384 18.5596 40.529 41.4536 40.529Z"/><path fill="#FFB6B6" d="M58.9379 404.399h11.0207l5.2348-42.444H58.9379v42.444Z"/><path fill="#2F2E41" d="M96.6837 404.146c.3444.574.5281 2.442.5281 3.107 0 2.064-1.676 3.738-3.7424 3.738H59.3511c-1.412 0-2.5485-1.135-2.5485-2.545v-1.422s-1.6876-4.265 1.7908-9.516c0 0 4.3165 4.116 10.7682-2.327l1.9056-3.44 13.7759 10.066 7.6342.941c1.676.206 3.1569-.035 4.0064 1.41v-.012Z"/><path fill="#FFB6B6" d="m67.2723 183.431.2296-14.848-9.1725-5.698-9.9645 12.165 18.9074 8.381Z"/><path fill="#000" d="m67.2722 183.431.5969-14.481-9.5398-6.065 3.2489 17.909 5.694 2.637Z" opacity=".1"/><path fill="#2F2E41" d="M89.5317 281.561 74.3553 384.736H55.3102l2.537-58.897 1.3317-30.967-3.8687-14.744s-1.7679-3.279-3.2488-7.246c-1.6761-4.483-2.9963-9.86-1.0332-12.405.7232-.941 2.5944-1.64 5.1544-2.156 1.5613-.321 3.3751-.562 5.3267-.757 11.2618-1.112 27.2877-.412 27.2877-.412l.4018 13.425.2296 7.499.1033 3.485Z"/><path fill="#FFB6B6" d="m39.5253 399.354 10.9059 1.594 11.3651-41.229-16.0834-2.362-6.1876 41.997Z"/><path fill="#2F2E41" d="M76.9153 404.582c.2525.619.1607 2.488.0689 3.153-.2985 2.041-2.2042 3.451-4.2476 3.153l-33.7624-4.953c-1.3891-.206-2.3534-1.502-2.1582-2.889l.2066-1.399s-1.0446-4.46 3.157-9.161c0 0 3.6736 4.701 10.9977-.745l2.3879-3.13 12.1687 11.958 7.416 2.041c1.6186.447 3.1225.424 3.7654 1.984v-.012ZM89.7729 264.363l-2.0779 17.909-11.3536 37.743-18.6893 62.141-18.8385-2.763 16.9099-88.35-1.6761-15.146s-.551-1.502-1.1709-3.714c-1.2399-4.357-2.8011-11.466-1.0906-15.089.2296-.493.5166-.917.8839-1.261.6773-.653 2.0435-1.043 3.8802-1.261 7.6686-.86 23.4535 1.605 30.4677 2.82l2.7666 6.971h-.0114Z"/><path fill="#E6E6E6" d="m50.4657 171.92 18.517 8.874s19.6307 58.059 19.6307 61.017c0 2.958 5.5562 4.804 2.2271 8.141-3.3292 3.336 6.1991 6.145 1.0676 8.805-5.143 2.66-37.1949 17.198-40.7536 15.891-9.8268-3.612.4132-16.912.4132-16.912s-7.3815-5.938-6.268-8.896c1.1136-2.959-6.6698-59.539-6.6698-59.539l11.8472-17.381h-.0114Z"/><path fill="#FFB6B6" d="M106.878 223.077c4.592-1.353 9.023-.091 9.884 2.832.861 2.924-2.158 6.386-6.762 7.739-1.825.562-3.765.688-5.648.356l-19.5385 5.503-2.3878-9.218 19.5153-4.437c1.401-1.307 3.1-2.259 4.937-2.775Z"/><path fill="#E6E6E6" d="m72.3119 190.425-3.0652 36.596 27.437.298 5.3263 8.187s-33.2569 19.227-43.2329 9.401c-9.9876-9.826-14.4303-51.169-5.5448-58.254 8.8739-7.074 19.091 3.772 19.091 3.772h-.0114Z"/><path fill="#FFB6B6" d="M66.8934 172.894c8.7621 0 15.8652-7.094 15.8652-15.844 0-8.751-7.1031-15.845-15.8652-15.845s-15.8652 7.094-15.8652 15.845c0 8.75 7.1031 15.844 15.8652 15.844Z"/><path fill="#2F2E41" d="M58.3294 157.118s2.5026-4.116 3.8687-6.237c1.3661-2.121 1.3776-5.228 1.3776-5.228s12.7427-.263 16.9788 3.359c4.2361 3.623 7.2438-9.733 3.1225-14.342 0 0-1.7449 1.995-1.3776 2.74l.3789.745s-2.1238-8.484-8.2426-10.101c0 0-3.4095 1.754-2.4567 2.752.9528.997-7.2897-5.996-9.7924-1.88 0 0-6.1187-.127-5.3726 2.121l-.3788 1.375s-5.2463-1.616-5.6251 2.248c0 0 1.8712 0 2.8699.997.9988.998-3.6161 3.864-3.6161 3.864s-5.3726 14.721 1.8712 20.706c0 0 .0574-7.177 2.9388-5.423 2.8815 1.754 3.4325 2.304 3.4325 2.304h.023ZM73.4255 166.474l-.5625 1.49 4.2706.126.287-1.375-3.9951-.241Z"/><path fill="#2F2E41" d="M77.696 161.108s-6.4058-1.742-10.2515 3.497l-.8496.998s-8.1162-9.104-7.4045-12.475l-1.7105.127-1.7105 8.736s5.407 9.356 12.9608 9.734c0 0 7.2553 1.743 8.8281-1.25 1.5727-2.992 4.259-7.406 4.259-7.406l-4.1213-1.949v-.012Zm-1.1709 8.358h-4.2476c-.9988 0-3.5588-3.611-3.5588-3.611 1.4235-2.247 5.6941-2.373 5.6941-2.373h4.6378l.3444 1.375-2.8699 4.621v-.012Z"/><path fill="#A0616A" d="m386.873 405.602-6.969-1.502 2.491-27.55 10.275 2.224-5.797 26.828Z"/><path fill="#2F2E41" d="M363.04 400.294c-.298.321-.665 1.468-.757 1.892-.287 1.307.551 2.591 1.848 2.866l21.571 4.655c.895.195 1.768-.378 1.963-1.261l.195-.894s1.653-2.465.172-6.26c0 0-3.295 2.006-6.486-2.947l-.735-2.431-10.079 4.483-4.959-.447c-1.08-.103-1.986-.447-2.733.344Z"/><path fill="#A0616A" d="m374.417 403.493-5.809-4.116 13.133-24.341 8.575 6.077-15.899 22.38Z"/><path fill="#2F2E41" d="M354.603 389.253c-.402.172-1.194 1.089-1.447 1.445-.769 1.089-.517 2.591.574 3.37l17.989 12.75c.746.527 1.768.355 2.296-.39l.528-.745s2.491-1.617 2.629-5.687c0 0-3.823.55-4.81-5.251l.287-2.522-11.032.16-4.374-2.362c-.953-.516-1.653-1.192-2.64-.756v-.012ZM458.105 267.321s10.837 14.71-10.837 31.254l-44.243-14.113 15.796-32.917 13.994-7.658 25.279 23.446.011-.012Z"/><path fill="#2F2E41" d="m403.036 284.462-17.151 33.363-10.837 69.422 13.547.905 13.534-65.821 23.925-35.622-16.692-7.659"/><path fill="#2F2E41" d="M447.28 288.096v10.479l-30.698 33.673s0 25.247-11.732 36.964l-13.546 20.741-11.733-6.318 17.151-60.41 30.697-39.669 19.861 4.54Z"/><path fill="#A0616A" d="m425.457 184.21 4.649 22.014 17.748-4.334s-8.771-18.218-7.026-25.441l-15.371 7.75v.011Z"/><path fill="#000" d="m425.457 184.21 4.649 22.014 17.748-4.334s-8.771-18.218-7.026-25.441l-15.371 7.75v.011Z" opacity=".1"/><path fill="#E6E6E6" d="m442.309 187.524-13.546 6.317s-6.969 4.254-7.095 7.086c-.126 2.832.769 16.36.769 16.36s-5.418 5.412-1.802 16.235l-1.802 18.035 40.627 21.634-3.616-37.869 1.802-35.163-15.349-12.624.012-.011Z"/><path fill="#A0616A" d="M454.466 290.137c-1.584 3.634-4.752 5.767-7.06 4.758-2.319-1.009-2.904-4.769-1.32-8.404.608-1.456 1.573-2.752 2.789-3.772l6.911-15.306 7.129 3.394-7.576 14.732c.08 1.583-.218 3.165-.873 4.609v-.011Z"/><path fill="#E6E6E6" d="M447.28 202.406s9.93-6.318 13.546.905c3.616 7.212 11.733 44.187 11.733 44.187l-11.733 35.164-10.837-4.506 9.482-37.847-12.191-37.892v-.011Z"/><path fill="#A0616A" d="M396.378 284.462c-2.813 2.797-6.544 3.611-8.323 1.823-1.779-1.789-.941-5.504 1.871-8.301 1.114-1.135 2.48-1.984 3.984-2.477l12.077-11.694 5.372 5.778-12.478 10.915c-.506 1.502-1.366 2.855-2.503 3.967v-.011Z"/><path fill="#E6E6E6" d="M422.059 200.25s17.311-.711 18.012 7.326c.7 8.038-11.136 43.889-11.136 43.889l-23.878 28.376-8.403-8.174 22.776-31.702 2.652-39.715h-.023Z"/><path fill="#0036D0" d="M472.042 295.48 361.33 277.64c-1.825-.298-3.077-2.018-2.778-3.852.298-1.835 2.02-3.073 3.857-2.775l110.712 17.84c1.826.298 3.077 2.018 2.778 3.852-.298 1.835-2.02 3.073-3.857 2.775ZM336.5 269.831c.728-4.481-2.319-8.704-6.806-9.431-4.487-.728-8.715 2.315-9.444 6.797-.728 4.481 2.319 8.704 6.806 9.431 4.488.728 8.716-2.315 9.444-6.797Z"/><path fill="#3F3D56" d="m325.272 281.894.286-1.8c6.728 1.077 13.076-3.497 14.155-10.216 1.079-6.719-3.501-13.059-10.228-14.136l.287-1.8c7.714 1.238 12.983 8.53 11.744 16.234-1.24 7.705-8.541 12.967-16.256 11.729l.012-.011Z"/><path fill="#A0616A" d="M427.236 188.888c7.532 0 13.638-6.098 13.638-13.62 0-7.523-6.106-13.621-13.638-13.621s-13.638 6.098-13.638 13.621c0 7.522 6.106 13.62 13.638 13.62Z"/><path fill="#2F2E41" d="M435.295 175.268s-8.507-7.716-13.971-4.999c-5.465 2.717-8.185 4.54-8.185 4.54s-4.547-6.81 2.273-12.715c0 0-13.88-6.053-3.754-15.512 10.125-9.459 19.206-5.824 19.206-5.824s12.272 5.446 3.639 16.337c0 0 12.582 7.969 6.061 21.005 0 0-.608-8.301-2.422-6.031-1.814 2.27-2.847 3.176-2.847 3.176v.023Z"/><path fill="#fff" d="M153.716 221.942c-5.212-12.795-10.424-25.601-15.636-38.396-.723-1.766-2.973-1.835-3.673 0-5.155 13.414-8.518 27.424-10.137 41.698-.276 2.431 3.536 2.408 3.811 0 .632-5.583 1.573-11.132 2.778-16.613 4.294.23 8.622-.252 12.766-1.399 2.135 5.24 4.27 10.491 6.406 15.731.907 2.235 4.603 1.261 3.673-1.009l.012-.012Zm-21.996-17.083c1.286-5.251 2.824-10.445 4.615-15.547l5.843 14.355c-3.421.894-6.922 1.295-10.458 1.192Z"/></g><defs><clipPath id="a"><path fill="#fff" d="M0 0h524v412H0z"/></clipPath></defs></svg>