<svg xmlns="http://www.w3.org/2000/svg" width="185" height="53" fill="none"><path fill="#241EC3" d="M68.6496 34.2288H53.8228c.0172 1.7446.3616 3.2798 1.0418 4.6144.6716 1.3346 1.5757 2.3377 2.695 3.0094 1.1194.6716 2.3506 1.0118 3.7024 1.0118.9041 0 1.7307-.1047 2.4798-.3227.7491-.2181 1.4723-.5496 2.1784-1.0119.706-.4623 1.3518-.9508 1.9459-1.4741.5941-.5234 1.3604-1.2387 2.3076-2.1371.3874-.3402.9471-.506 1.6617-.506.775 0 1.4035.2181 1.8857.6455.4822.4274.7232 1.038.7232 1.8318 0 .6978-.2669 1.5003-.8007 2.4337-.5338.9246-1.3432 1.8143-2.4281 2.6692-1.0849.8548-2.4453 1.5614-4.0813 2.1196-1.6359.5583-3.5216.8462-5.6483.8462-4.8648 0-8.6533-1.4044-11.3483-4.2132-2.695-2.8087-4.0554-6.6293-4.0554-11.4444 0-2.2679.3358-4.3701.9987-6.3153.663-1.9452 1.636-3.6025 2.9103-4.9895 1.2743-1.3869 2.85-2.4511 4.7184-3.1925 1.8685-.7415 3.9435-1.1078 6.2166-1.1078 2.962 0 5.502.6367 7.6201 1.9016 2.1181 1.2648 3.7024 2.9047 4.7615 4.9022 1.0504 2.0063 1.5843 4.0474 1.5843 6.1322 0 1.9277-.5425 3.1838-1.636 3.7508-1.0935.5582-2.6347.8461-4.6065.8461Zm-14.8268-4.3527h13.7333c-.1808-2.6256-.8868-4.5882-2.0923-5.8879-1.214-1.2997-2.8069-1.9539-4.7873-1.9539-1.8856 0-3.4355.6629-4.6495 1.98-1.2054 1.3172-1.9459 3.2711-2.2042 5.8618ZM85.4311 21.5193l6.1305 17.4282 6.604-18.1871c.5167-1.4655 1.0247-2.4948 1.524-3.1054.4994-.6106 1.2574-.9159 2.2734-.9159.964 0 1.782.3315 2.454.9857.671.6542 1.016 1.4131 1.016 2.2767 0 .3402-.061.7327-.181 1.1776-.121.4448-.258.8722-.413 1.2648-.155.3925-.336.8461-.543 1.352l-7.2669 18.2744c-.2067.5233-.465 1.1863-.7922 1.9975-.3272.8025-.6888 1.4916-1.0849 2.0673-.396.5757-.8868 1.0206-1.4723 1.3346-.5855.3228-1.2915.4798-2.1267.4798-1.0763 0-1.9287-.2443-2.5659-.7415-.6372-.4972-1.1107-1.038-1.4121-1.6311-.3013-.5932-.818-1.7533-1.5412-3.4979l-7.2154-18.0737c-.1636-.4536-.3358-.8985-.5166-1.3521-.1722-.4536-.3272-.9072-.4478-1.3782-.1205-.471-.1808-.8723-.1808-1.2125 0-.5233.155-1.0467.4736-1.5614.3186-.5146.7491-.9333 1.3001-1.2648.5511-.3314 1.1538-.4884 1.8082-.4884 1.2571 0 2.1267.3663 2.5917 1.099.4821.724 1.0074 1.954 1.5843 3.6724ZM117.332 21.1006v22.1821c0 1.5353-.361 2.6954-1.085 3.4892-.723.785-1.636 1.1776-2.746 1.1776-1.111 0-2.015-.4013-2.704-1.2125-.689-.8112-1.042-1.9626-1.042-3.4543V21.3273c0-1.5177.345-2.6604 1.042-3.428.697-.7676 1.593-1.1514 2.704-1.1514 1.11 0 2.023.3838 2.746 1.1514.724.7676 1.085 1.8318 1.085 3.2013ZM147.296 37.8571c0 2.1197-.508 3.934-1.524 5.4431-1.016 1.509-2.523 2.6517-4.512 3.4281-1.989.7763-4.408 1.1688-7.258 1.1688-2.721 0-5.055-.4187-6.992-1.2648-1.946-.8461-3.375-1.9016-4.305-3.1664-.921-1.2648-1.386-2.5383-1.386-3.8119 0-.8461.292-1.5613.886-2.1632.595-.6019 1.344-.8985 2.248-.8985.792 0 1.403.2007 1.834.5932.422.3925.835.9508 1.222 1.6573.775 1.3695 1.705 2.3901 2.79 3.0617 1.085.6717 2.557 1.0119 4.426 1.0119 1.515 0 2.764-.3402 3.737-1.0293.973-.6804 1.455-1.4654 1.455-2.3464 0-1.3521-.508-2.3378-1.516-2.9484-1.007-.6193-2.669-1.2124-4.985-1.7707-2.609-.6542-4.736-1.3433-6.372-2.0673-1.636-.724-2.944-1.6748-3.926-2.8524-.981-1.1776-1.472-2.6343-1.472-4.3614 0-1.5352.456-2.9919 1.36-4.3614.904-1.3695 2.248-2.4599 4.013-3.2711 1.765-.8112 3.9-1.2212 6.397-1.2212 1.963 0 3.72.2093 5.287.6193 1.567.41 2.867.9683 3.909 1.6574 1.042.6978 1.842 1.4654 2.385 2.3028.542.8461.818 1.6661.818 2.4773 0 .881-.293 1.605-.878 2.1632-.586.5583-1.413.8462-2.48.8462-.775 0-1.438-.2268-1.981-.6717-.542-.4536-1.171-1.1252-1.877-2.0237-.576-.7502-1.248-1.352-2.023-1.7969-.775-.4449-1.834-.6717-3.16-.6717-1.369 0-2.506.2966-3.41.8898-.904.5931-1.36 1.3258-1.36 2.2068 0 .8025.336 1.4655.999 1.9801.663.5147 1.567.9421 2.695 1.2823 1.128.3402 2.686.7502 4.658 1.2386 2.35.5845 4.271 1.2736 5.76 2.0848 1.49.8112 2.618 1.7533 3.384 2.8524.766 1.0816 1.154 2.329 1.154 3.7333Z"/><path fill="#000A2A" d="M113.586 13.1715c-1.05 0-1.954-.3315-2.703-.9857-.749-.6542-1.128-1.5875-1.128-2.78257 0-1.09036.387-1.98009 1.154-2.68664.766-.70655 1.661-1.05546 2.677-1.05546.982 0 1.852.32274 2.609.95951.758.63677 1.137 1.56139 1.137 2.78259 0 1.17757-.37 2.10217-1.111 2.76517-.74.6716-1.619 1.0031-2.635 1.0031Z"/><path fill="#241EC3" d="M43.0858 41.7214c-.5855-1.3957-1.3949-2.9571-2.4454-4.6929-1.0504-1.7359-2.23-3.367-3.5646-4.9023-1.3346-1.5352-2.7295-2.6953-4.1932-3.4891 3.4785-.7676 6.0702-2.0673 7.7837-3.9078 1.7134-1.8406 2.5658-4.2917 2.5658-7.3621 0-1.5003-.2583-2.9222-.7663-4.2568-.508-1.3433-1.2571-2.5121-2.23-3.524-.973-1.01185-2.1096-1.78818-3.3839-2.33772-1.0504-.48848-2.2386-.81122-3.556-.96823-1.3174-.15701-2.8931-.23552-4.7443-.23552H15.1541c-1.7737 0-3.0653.40125-3.8574 1.21247-.7922.80251-1.1968 2.11093-1.1968 3.9078V26.247c1.0935-3.8729 4.2793-6.8387 8.24-7.5539v-6.3939h7.6028c2.8328 0 4.7271.2094 5.6914.6193 1.016.4275 1.8168 1.0817 2.385 1.9539.5769.8723.8611 1.8755.8611 3.0182 0 1.4654-.353 2.6081-1.0677 3.4455-.7146.8374-1.7479 1.4218-3.0911 1.7707-.4994.1309-1.059.2268-1.6445.3053 1.0504 1.6574 1.6704 3.6287 1.6704 5.7484 0 1.9539-.5339 3.7857-1.438 5.3645.4994.7415 1.0247 1.5876 1.5843 2.5471L34.2 42.6373c.7749 1.3084 1.3948 2.3028 1.8426 2.9832.4563.6716.9901 1.2299 1.6273 1.6748.6285.4361 1.4035.6629 2.3334.6629.7749 0 1.4637-.157 2.0578-.4623.5941-.3053 1.0591-.7327 1.4035-1.2648.3444-.5321.5166-1.0729.5166-1.6138-.0172-.5408-.3099-1.5003-.8954-2.8959ZM10.0999 32.0913v10.7728c0 1.666.3616 2.9308 1.0848 3.7944.7233.8636 1.7393 1.291 3.0567 1.291 1.2226 0 2.2128-.41 2.9705-1.2387.7577-.8286 1.1366-2.1109 1.1366-3.8555v-3.21c-3.9693-.724-7.1551-3.681-8.2486-7.554ZM171.714 43.6317c-1.825 1.4392-3.599 2.5209-5.304 3.2449-1.704.724-3.624 1.0816-5.751 1.0816-1.938 0-3.642-.3925-5.115-1.1601-1.472-.7764-2.6-1.8318-3.392-3.1577-.792-1.3259-1.188-2.7652-1.188-4.3178 0-2.0935.654-3.8817 1.963-5.3558 1.309-1.4742 3.108-2.4686 5.398-2.9745.483-.1134 1.671-.3664 3.574-.7589 1.903-.3926 3.53-.7502 4.89-1.0817 1.361-.3314 2.833-.724 4.417-1.195-.094-2.0237-.49-3.5066-1.205-4.4486-.715-.9421-2.187-1.4131-4.417-1.4131-1.92 0-3.367.2704-4.331.8112-.973.5408-1.8 1.3608-2.497 2.4424-.689 1.0816-1.18 1.7969-1.464 2.1458-.284.3489-.904.5234-1.842.5234-.853 0-1.585-.2792-2.205-.8287-.62-.5495-.93-1.2561-.93-2.1196 0-1.3434.474-2.6605 1.413-3.9253.938-1.2736 2.41-2.3203 4.408-3.1403 1.998-.8199 4.477-1.2386 7.448-1.2386 3.323 0 5.932.4013 7.835 1.195 1.903.7938 3.246 2.0499 4.03 3.777.783 1.7184 1.179 4.0038 1.179 6.8475 0 1.7969-.008 3.3234-.017 4.5707-.008 1.2561-.026 2.6431-.043 4.1783 0 1.4392.233 2.9396.706 4.501.474 1.5613.706 2.5645.706 3.0181 0 .785-.361 1.5003-1.093 2.1458s-1.559.9682-2.48.9682c-.775 0-1.541-.3663-2.299-1.1078-.749-.7501-1.55-1.8231-2.394-3.2274Zm-.499-11.078c-1.111.4099-2.721.8461-4.83 1.3084-2.119.4623-3.582.7938-4.392 1.0118-.809.2181-1.584.6368-2.324 1.2648-.741.6281-1.111 1.5004-1.111 2.6256 0 1.1602.43 2.1458 1.3 2.9571.87.8112 2.006 1.2212 3.41 1.2212 1.498 0 2.875-.3315 4.141-.9944 1.266-.663 2.196-1.5178 2.781-2.5646.681-1.1601 1.025-3.0704 1.025-5.7221v-1.1078Z"/><path fill="#000A2A" d="M26.5368 22.4264c-3.246-3.1402-8.3864-3.4368-11.9424-.6891-1.834 1.4131-2.9964 3.2624-3.4613 5.4954-.5511 2.6169-.0603 5.1029 1.4551 7.3795l.0172-.0087c.0086.0175.0259.0349.0345.0524l-6.39745 6.3938c-.68882.7938-.5855 2.3639.19804 3.0617.78353.6978 2.32477.7153 3.01359-.0785l5.50192-7.0393c.0345.0174.0689.0436.1034.061.0774.0437.1463.0873.2238.1222v.0087c1.5413.9333 3.16 1.4044 4.8304 1.4044.6457 0 1.3001-.0698 1.9545-.2094 2.4023-.5059 4.331-1.8143 5.7344-3.8904 2.5659-3.7944 2.0321-8.8711-1.2657-12.0637Zm-6.3716 12.9098c-3.3321 0-6.0271-2.7302-6.0271-6.106 0-3.3757 2.695-6.1059 6.0271-6.1059 3.3322 0 6.0272 2.7302 6.0272 6.1059 0 3.3758-2.695 6.106-6.0272 6.106Z"/></svg>